<?xml version="1.0" encoding="UTF-8" standalone="no"?>
<!-- Created with Inkscape (http://www.inkscape.org/) -->

<svg
   width="500"
   height="500"
   viewBox="0 0 132.29166 132.29167"
   version="1.1"
   id="svg5"
   xml:space="preserve"
   inkscape:version="1.2 (1:1.2.1+202207142221+cd75a1ee6d)"
   sodipodi:docname="logo_evergreen.svg"
   xmlns:inkscape="http://www.inkscape.org/namespaces/inkscape"
   xmlns:sodipodi="http://sodipodi.sourceforge.net/DTD/sodipodi-0.dtd"
   xmlns="http://www.w3.org/2000/svg"
   xmlns:svg="http://www.w3.org/2000/svg"><sodipodi:namedview
     id="namedview7"
     pagecolor="#ffffff"
     bordercolor="#666666"
     borderopacity="1.0"
     inkscape:showpageshadow="2"
     inkscape:pageopacity="0.0"
     inkscape:pagecheckerboard="0"
     inkscape:deskcolor="#d1d1d1"
     inkscape:document-units="px"
     showgrid="false"
     showguides="true"
     inkscape:zoom="0.4792789"
     inkscape:cx="141.87981"
     inkscape:cy="278.54345"
     inkscape:window-width="1312"
     inkscape:window-height="704"
     inkscape:window-x="54"
     inkscape:window-y="27"
     inkscape:window-maximized="1"
     inkscape:current-layer="layer1" /><defs
     id="defs2" /><g
     inkscape:label="Capa 1"
     inkscape:groupmode="layer"
     id="layer1"><g
       id="g5426"
       transform="matrix(1.1858505,0,0,1.1858505,-38.669955,-120.81487)"><path
         style="display:inline;fill:#048569;fill-opacity:1;stroke-width:0.264583"
         d="m 85.067668,193.03045 c 0.487841,-0.95899 1.230955,-3.9869 1.230955,-5.01568 0,-0.89697 -0.352147,-1.13577 -1.675286,-1.13607 -2.616449,-5.3e-4 -9.059966,-2.53047 -12.324019,-4.8387 -2.175002,-1.5381 -5.308555,-4.6293 -6.801697,-6.70977 -5.106998,-7.11587 -6.488362,-17.14626 -3.510844,-25.49301 0.441248,-1.23693 0.80127,-2.36802 0.80005,-2.51354 -0.0013,-0.14552 -0.539187,-1.57427 -1.19548,-3.175 -2.81794,-6.87309 -3.203321,-14.75163 -1.056653,-21.60163 l 0.633804,-2.02245 2.44475,0.52914 c 11.91609,2.57914 21.474973,12.15277 25.17276,25.2116 1.523328,5.37969 1.572919,6.00494 1.73128,21.82813 l 0.14696,14.68438 0.926042,-0.0848 c 1.897354,-0.1738 5.196036,-1.17635 7.261215,-2.20686 6.552525,-3.26964 10.959795,-8.63543 12.771555,-15.5492 0.93062,-3.55131 0.92731,-8.06045 -0.009,-11.67862 -1.06863,-4.13137 -3.1568,-7.87188 -5.9974,-10.74308 l -1.61602,-1.63344 -2.0382,1.2067 c -2.185401,1.29384 -3.610661,1.96551 -5.795117,2.73101 l -1.37568,0.48207 -0.18347,-1.22346 c -0.28226,-1.88226 0.06441,-7.06635 0.671878,-10.04726 1.08794,-5.3386 3.59492,-10.9755 6.749409,-15.17591 1.73712,-2.31309 5.57498,-6.18428 7.54791,-7.61347 1.56185,-1.1314 1.02122,-1.03989 -1.06751,0.18069 -5.82988,3.40678 -11.043462,8.9791 -14.123556,15.09535 -1.973585,3.91901 -3.590184,9.9782 -3.590184,13.4564 v 1.44447 l -1.95793,-3.87575 -1.95793,-3.87576 0.369337,-1.76524 c 1.673601,-7.99897 5.162844,-14.65418 10.433231,-19.89985 3.657952,-3.64079 7.542952,-6.06437 12.295582,-7.67033 2.2144,-0.74826 5.59541,-1.50684 5.80077,-1.30147 0.31992,0.31992 1.48912,4.98922 1.76418,7.04543 0.45182,3.3775 0.16636,8.59144 -0.64266,11.73847 -1.50463,5.85287 -3.93682,10.30676 -8.13931,14.90496 l -1.36124,1.48942 1.30172,1.3827 c 5.21011,5.53422 7.77997,12.02419 7.7829,19.65504 0.001,3.58692 -0.45772,6.25802 -1.62558,9.45804 -3.39033,9.28974 -11.52122,16.1777 -21.152653,17.91915 -0.945886,0.17103 -2.00441,0.36451 -2.352273,0.42998 l -0.632484,0.11902 0.149405,1.78209 c 0.08217,0.98015 0.396494,2.4322 0.698495,3.22677 0.301998,0.79458 0.54915,1.47446 0.549224,1.51084 7.2e-5,0.0364 -1.669801,0.0661 -3.710829,0.0661 h -3.710961 z m 0.854623,-37.50469 c -1.481747,-11.2372 -8.481947,-21.62922 -18.01221,-26.73969 -2.091214,-1.12139 -2.06792,-1.08098 0.617948,1.07177 5.300967,4.24878 9.602441,10.49643 11.815397,17.16122 1.409134,4.2439 1.743456,6.23521 1.907599,11.36223 l 0.150714,4.7076 -1.713254,-0.64487 c -4.816231,-1.81282 -8.553323,-4.24471 -12.309438,-8.01028 l -2.706034,-2.71285 -0.29001,1.07702 c -0.811368,3.01319 -1.01006,7.09086 -0.500351,10.26848 0.6344,3.95495 2.835405,8.61497 5.516701,11.68009 3.160307,3.61271 8.41157,6.67454 13.266158,7.73506 0.442857,0.0967 0.887894,0.53598 1.297035,1.28012 0.342569,0.62307 0.753563,1.30002 0.913321,1.50433 0.489675,0.62624 0.531336,-26.06277 0.04642,-29.74023 z"
         id="path269"
         sodipodi:nodetypes="cscssscsscssscssscscsscssssssscccssssssscscssscssssccssssscsscssscssss" /><path
         style="display:inline;fill:#00a859;fill-opacity:1;stroke-width:0.264583"
         d="m 37.406483,205.81027 v -6.4823 h 4.365625 4.365626 v 1.05834 1.05833 h -3.175 -3.175001 v 1.5875 1.5875 h 2.116667 2.116667 v 1.05833 1.05834 H 41.9044 39.787733 v 1.71979 1.71979 h 3.175001 3.175 v 1.05833 1.05834 h -4.365626 -4.365625 z m 13.512338,4.69635 c -0.293143,-0.98227 -1.131245,-3.75047 -1.862447,-6.15156 -0.731205,-2.4011 -1.32984,-4.52098 -1.330302,-4.71085 -6.08e-4,-0.24644 0.354728,-0.32215 1.241743,-0.26459 l 1.242581,0.0806 1.162309,4.36562 c 0.639268,2.40109 1.252512,4.46051 1.362761,4.57649 0.110249,0.11597 0.65455,-1.49137 1.209561,-3.57188 0.555011,-2.0805 1.11461,-4.16969 1.243552,-4.64263 l 0.234445,-0.8599 h 1.21126 1.211262 l -0.162446,0.81224 c -0.08934,0.44672 -0.956633,3.36375 -1.927304,6.48229 l -1.764856,5.67006 h -1.269566 -1.269566 z m 8.834054,1.45607 c -0.0724,-0.18868 -0.09957,-3.0789 -0.06037,-6.42273 l 0.07127,-6.07969 h 4.365625 4.365625 l 0.08212,0.99218 0.08212,0.99219 h -3.190971 -3.190973 v 1.57637 1.57637 l 2.050521,0.0773 2.050521,0.0773 0.08212,0.99219 0.08212,0.99219 h -2.132637 -2.13264 v 1.71979 1.71979 h 3.190973 3.190971 l -0.08212,0.99219 -0.08212,0.99219 -4.305258,0.0727 c -3.335496,0.0563 -4.334907,-0.005 -4.436893,-0.2703 z m 10.726526,-6.15242 v -6.4823 h 3.091466 c 2.572985,0 3.278843,0.0907 4.208735,0.54087 1.340392,0.64887 1.960217,1.78067 1.960217,3.57937 v 1.26214 l -1.136913,1.08935 -1.13691,1.08935 1.118013,2.37103 c 0.61491,1.30406 1.12652,2.51985 1.13691,2.70175 0.0124,0.2169 -0.37813,0.33073 -1.134698,0.33073 h -1.153599 l -1.276863,-2.79117 -1.276864,-2.79116 -0.942977,0.0792 -0.942975,0.0792 -0.0754,2.71198 -0.0754,2.71198 h -1.181367 -1.18137 z m 6.395313,-1.36393 c 0.722148,-0.65353 0.615936,-1.80106 -0.228153,-2.46502 -0.568643,-0.4473 -1.008163,-0.5444 -2.182813,-0.48223 l -1.470805,0.0778 -0.07877,1.65365 -0.07877,1.65364 h 1.777727 c 1.282901,0 1.912411,-0.12188 2.261585,-0.43788 z m 10.934895,7.44472 c -2.11401,-1.13832 -2.51686,-2.14065 -2.49713,-6.21309 0.0161,-3.33154 0.31978,-4.31802 1.66179,-5.39884 l 1.01675,-0.81886 h 2.04656 c 1.83219,0 2.14795,0.0773 3.01459,0.73836 1.08056,0.82418 1.3574,1.25022 1.62633,2.50278 l 0.18461,0.8599 h -1.34393 c -1.16755,0 -1.34394,-0.0695 -1.34394,-0.52917 0,-0.88404 -0.93796,-1.5875 -2.11667,-1.5875 -1.96747,0 -2.50787,1.18297 -2.34267,5.12818 0.0809,1.93164 0.18148,2.33124 0.73514,2.92045 0.49063,0.52213 0.90088,0.68262 1.74493,0.68262 1.32811,0 2.01126,-0.62711 2.07065,-1.9008 l 0.0409,-0.87732 -1.12448,-0.0814 -1.12448,-0.0814 v -0.91083 -0.91083 h 2.41605 2.41604 l -0.12545,1.95479 c -0.13775,2.14647 -0.65873,3.32361 -1.87083,4.22709 -0.99146,0.73903 -3.94279,0.91071 -5.08477,0.29579 z m 9.12813,-6.08079 v -6.4823 l 2.84427,0.002 c 1.564351,8e-4 3.283101,0.12336 3.819451,0.27232 2.76869,0.76898 3.45437,5.16089 1.02186,6.54522 -0.44169,0.25137 -0.80382,0.53792 -0.80474,0.63679 -8e-4,0.0989 0.5341,1.33414 1.18895,2.74504 0.65484,1.41091 1.19062,2.60993 1.19062,2.66451 0,0.0546 -0.54155,0.0992 -1.20345,0.0992 h -1.20345 l -1.29726,-2.77824 -1.29726,-2.77812 h -0.93887 -0.938871 v 2.77812 2.77813 h -1.19063 -1.19062 z m 6.211231,-1.28547 c 0.30695,-0.22445 0.49154,-0.68705 0.49154,-1.23186 0,-1.29276 -0.83056,-1.8483 -2.76333,-1.8483 h -1.558191 v 1.71979 1.71979 h 1.669221 c 0.98884,0 1.86958,-0.1465 2.16076,-0.35942 z m 5.16585,1.28547 v -6.4823 h 4.36563 4.36562 v 1.05834 1.05833 h -3.175 -3.175 v 1.5875 1.5875 h 2.11667 2.11666 v 1.05833 1.05834 h -2.11666 -2.11667 v 1.71979 1.71979 h 3.175 3.175 v 1.05833 1.05834 h -4.36562 -4.36563 z m 10.70472,6.15242 c -0.0724,-0.18868 -0.0996,-3.0789 -0.0604,-6.42273 l 0.0713,-6.07969 h 4.36562 4.36563 l 0.0821,0.99218 0.0821,0.99219 h -3.19097 -3.19097 v 1.57637 1.57637 l 2.05052,0.0773 2.05052,0.0773 0.0821,0.99219 0.0821,0.99219 h -2.13263 -2.13264 v 1.71979 1.71979 h 3.19097 3.19097 l -0.0821,0.99219 -0.0821,0.99219 -4.30526,0.0727 c -3.3355,0.0563 -4.33491,-0.005 -4.4369,-0.2703 z m 10.85128,0.009 c -0.0743,-0.19348 -0.10292,-3.08764 -0.0637,-6.43147 l 0.0713,-6.0797 h 1.17433 1.17432 l 2.39755,3.96875 2.39755,3.96875 0.073,-4.0349 0.073,-4.0349 h 1.18373 1.18373 v 6.49751 6.49751 l -1.12447,-0.0814 -1.12448,-0.0814 -2.31804,-3.83646 c -1.27492,-2.11005 -2.44591,-3.87952 -2.60219,-3.93216 -0.19626,-0.0661 -0.26065,1.1207 -0.20815,3.83646 l 0.076,3.93216 -1.11426,0.0815 c -0.74456,0.0545 -1.15906,-0.0352 -1.24926,-0.27031 z"
         id="path269-3"
         sodipodi:nodetypes="cccccccccccccccccccccccccsssscsssscccsscccssscccccccccccccccccccccsssccssscccssscccccccccccsccccsccccscscscssssssscccccccsscccccsscsssccccccccccssscccssccccccccccccccccccccccccccscccccccccccccccccccccscccscccccccccccccssscccc" /></g></g></svg>
